HIERARCHY
ROOT Hips
{
	OFFSET	0.00	0.00	0.00
	CHANNELS 6 Xposition Yposition Zposition Zrotation Xrotation Yrotation
	JOINT LeftUpLeg
	{
		OFFSET	 0.126116	-0.065224	 0.014019
		CHANNELS 3 Zrotation Xrotation Yrotation
		JOINT LeftLeg
		{
			OFFSET	 0.000000	 0.569914	 0.000000
			CHANNELS 3 Zrotation Xrotation Yrotation
			JOINT LeftFoot
			{
				OFFSET	 0.000000	 0.544423	 0.000000
				CHANNELS 3 Zrotation Xrotation Yrotation
				JOINT LeftToeBase
				{
					OFFSET	 0.000000	 0.207117	 0.000000
					CHANNELS 3 Zrotation Xrotation Yrotation
					End Site
					{
						OFFSET	 0.000000	 0.207117	 0.000000
					}
				}
			}
		}
	}
	JOINT RightUpLeg
	{
		OFFSET	-0.124023	-0.065224	 0.008373
		CHANNELS 3 Zrotation Xrotation Yrotation
		JOINT RightLeg
		{
			OFFSET	 0.000000	 0.570047	 0.000000
			CHANNELS 3 Zrotation Xrotation Yrotation
			JOINT RightFoot
			{
				OFFSET	 0.000000	 0.544354	 0.000000
				CHANNELS 3 Zrotation Xrotation Yrotation
				JOINT RightToeBase
				{
					OFFSET	 0.000000	 0.207540	 0.000000
					CHANNELS 3 Zrotation Xrotation Yrotation
					End Site
					{
						OFFSET	 0.000000	 0.207540	 0.000000
					}
				}
			}
		}
	}
	JOINT Spine
	{
		OFFSET	 0.000184	 0.117403	 0.007763
		CHANNELS 3 Zrotation Xrotation Yrotation
		JOINT Spine1
		{
			OFFSET	 0.000000	 0.137269	 0.000000
			CHANNELS 3 Zrotation Xrotation Yrotation
			JOINT Spine2
			{
				OFFSET	 0.000000	 0.156879	 0.000000
				CHANNELS 3 Zrotation Xrotation Yrotation
				JOINT LeftShoulder
				{
					OFFSET	 0.080501	 0.160143	 0.002496
					CHANNELS 3 Zrotation Xrotation Yrotation
					JOINT LeftArm
					{
						OFFSET	 0.000000	 0.164363	 0.000000
						CHANNELS 3 Zrotation Xrotation Yrotation
						JOINT LeftForeArm
						{
							OFFSET	 0.000000	 0.364576	 0.000000
							CHANNELS 3 Zrotation Xrotation Yrotation
							JOINT LeftHand
							{
								OFFSET	 0.000000	 0.360812	 0.000000
								CHANNELS 3 Zrotation Xrotation Yrotation
								JOINT LeftHandIndex1
								{
									OFFSET	 0.000000	 0.086006	 0.000000
									CHANNELS 3 Zrotation Xrotation Yrotation
									JOINT LeftHandIndex2
									{
										OFFSET	 0.000000	 0.047237	 0.000000
										CHANNELS 3 Zrotation Xrotation Yrotation
										JOINT LeftHandIndex3
										{
											OFFSET	-0.004284	 0.038165	 0.000551
											CHANNELS 3 Zrotation Xrotation Yrotation
											End Site
											{
												OFFSET	-0.004284	 0.038165	 0.000551
											}
										}
									}
								}
							}
						}
					}
				}
				JOINT Neck
				{
					OFFSET	 0.000000	 0.176489	 0.000000
					CHANNELS 3 Zrotation Xrotation Yrotation
					JOINT Head
					{
						OFFSET	 0.000000	 0.077941	 0.001747
						CHANNELS 3 Zrotation Xrotation Yrotation
						End Site
						{
							OFFSET	 0.000000	 0.077941	 0.001747
						}
					}
				}
				JOINT RightShoulder
				{
					OFFSET	-0.080363	 0.159706	-0.000306
					CHANNELS 3 Zrotation Xrotation Yrotation
					JOINT RightArm
					{
						OFFSET	 0.000000	 0.164196	 0.000000
						CHANNELS 3 Zrotation Xrotation Yrotation
						JOINT RightForeArm
						{
							OFFSET	 0.000000	 0.365611	 0.000000
							CHANNELS 3 Zrotation Xrotation Yrotation
							JOINT RightHand
							{
								OFFSET	 0.000000	 0.360648	 0.000000
								CHANNELS 3 Zrotation Xrotation Yrotation
								JOINT RightHandIndex1
								{
									OFFSET	 0.000000	 0.069977	 0.000000
									CHANNELS 3 Zrotation Xrotation Yrotation
									JOINT RightHandIndex2
									{
										OFFSET	 0.000000	 0.052305	 0.000000
										CHANNELS 3 Zrotation Xrotation Yrotation
										JOINT RightHandIndex3
										{
											OFFSET	 0.009002	 0.042196	 0.000782
											CHANNELS 3 Zrotation Xrotation Yrotation
											End Site
											{
												OFFSET	 0.009002	 0.042196	 0.000782
											}
										}
									}
								}
							}
						}
					}
				}
			}
		}
	}
}
MOTION
Frames:    7
Frame Time: 0.03333334
 0.000327	 1.271134	 0.063365	 0.385852	-0.006306	 179.992600	-176.653200	 1.760700	-10.252290	 2.503536	-11.650500	-0.001994	-5.464325	 70.673310	 4.762837	 1.292262	 28.425850	-2.713146	 177.312300	 1.323542	 10.318950	-2.142563	-10.306370	 0.072993	 5.326337	 69.833660	-4.804108	-1.288183	 28.361890	 2.710176	-0.144510	 2.959670	-10.072670	 2.256502	 3.012045	-5.175575	-2.160234	-3.765146	 15.167020	-101.478000	 1.740679	 90.353390	 43.460090	 54.786990	-39.370210	 2.083416	 4.350286	 1.376017	-20.783400	-6.711376	-33.384510	-6.580301	 5.266122	 0.000000	 0.000000	 0.000000	 0.000000	 0.000000	 0.000000	 0.000000	 0.089846	-3.783161	 0.005928	-0.025240	 0.765784	 3.775440	 101.796200	-0.213312	-89.955460	-7.326042	 65.451670	-1.735207	-2.784879	 4.262948	 1.385307	-21.776360	 4.806740	-29.672000	 15.208500	 5.323790	 0.000000	 0.000000	 0.000000	 0.000000	 0.000000	 0.000000	 0.000000
 0.000282	 1.271145	 0.063364	 0.403230	-0.006835	 179.992200	-176.481200	 1.777262	-11.785980	 2.509582	-11.677850	-0.000774	-5.439382	 70.601840	 4.744715	 1.292262	 28.425850	-2.713146	 177.190600	 1.298650	 11.855090	-2.131112	-10.252500	 0.075041	 5.287274	 69.724330	-4.784196	-1.288183	 28.361890	 2.710176	-0.089962	 2.796835	-10.508280	 2.223283	 3.573181	-5.193532	-2.087820	-4.483170	 15.134060	-101.478000	 1.740678	 90.353400	 42.671180	 54.752720	-38.571780	 2.187188	 4.349932	 1.071006	-20.119280	-6.817832	-33.850750	-6.580301	 5.266122	 0.000000	 0.000000	 0.000000	 0.000000	 0.000000	 0.000000	 0.000000	 0.089846	-3.783161	 0.005928	-0.022443	 0.683379	 3.761912	 101.796200	-0.213310	-89.955440	-6.620093	 65.197470	-2.421640	-2.889175	 4.259161	 1.670843	-22.793840	 5.129924	-28.975000	 15.208500	 5.323790	 0.000000	 0.000000	 0.000000	 0.000000	 0.000000	 0.000000	 0.000000
 0.000235	 1.271162	 0.063363	 0.421372	-0.007969	 179.992100	-176.286800	 1.787759	-13.525260	 2.514722	-11.701090	 0.000272	-5.406924	 70.517130	 4.723525	 1.292262	 28.425850	-2.713146	 177.053000	 1.265623	 13.596880	-2.117747	-10.189580	 0.077417	 5.238565	 69.599930	-4.760044	-1.288183	 28.361890	 2.710176	-0.020394	 2.611472	-11.187980	 2.177148	 4.209213	-5.195503	-1.997338	-5.301246	 15.040310	-101.478000	 1.740664	 90.353390	 41.773870	 54.711320	-37.654830	 2.355243	 4.350046	 0.578011	-19.361760	-7.001456	-34.484950	-6.580301	 5.266122	 0.000000	 0.000000	 0.000000	 0.000000	 0.000000	 0.000000	 0.000000	 0.089846	-3.783161	 0.005928	-0.019324	 0.593188	 3.731714	 101.796200	-0.213323	-89.955440	-5.885679	 64.889770	-3.138638	-3.058907	 4.255123	 2.131689	-24.047160	 5.429336	-27.876350	 15.208500	 5.323790	 0.000000	 0.000000	 0.000000	 0.000000	 0.000000	 0.000000	 0.000000
 0.000193	 1.271185	 0.063361	 0.437723	-0.008952	 179.992000	-176.092900	 1.788166	-15.273190	 2.517872	-11.715340	 0.000910	-5.369267	 70.427880	 4.700938	 1.292262	 28.425850	-2.713146	 176.915100	 1.227032	 15.347020	-2.104083	-10.125220	 0.079820	 5.185960	 69.474980	-4.735132	-1.288183	 28.361890	 2.710176	 0.054992	 2.423854	-12.068060	 2.122135	 4.849629	-5.176686	-1.898227	-6.128838	 14.884200	-101.478000	 1.740672	 90.353390	 40.869030	 54.667440	-36.717160	 2.578109	 4.350702	-0.074872	-18.590680	-7.250668	-35.236150	-6.580301	 5.266122	 0.000000	 0.000000	 0.000000	 0.000000	 0.000000	 0.000000	 0.000000	 0.089846	-3.783161	 0.005928	-0.016275	 0.505941	 3.685068	 101.796200	-0.213307	-89.955450	-5.222374	 64.557710	-3.790859	-3.285438	 4.252347	 2.743306	-25.410880	 5.649145	-26.439060	 15.208500	 5.323790	 0.000000	 0.000000	 0.000000	 0.000000	 0.000000	 0.000000	 0.000000
 0.000148	 1.271221	 0.063360	 0.455281	-0.010316	 179.991500	-175.847000	 1.773584	-17.525230	 2.518741	-11.719260	 0.001084	-5.312231	 70.306390	 4.668825	 1.292262	 28.425850	-2.713146	 176.737500	 1.170818	 17.601430	-2.086518	-10.042460	 0.082901	 5.113709	 69.315210	-4.702934	-1.288183	 28.361890	 2.710176	 0.155458	 2.178558	-13.487890	 2.037819	 5.676868	-5.119540	-1.758922	-7.204179	 14.587320	-101.478000	 1.740665	 90.353370	 39.695810	 54.608230	-35.486100	 2.945675	 4.354066	-1.148488	-17.570460	-7.665480	-36.361060	-6.580301	 5.266122	 0.000000	 0.000000	 0.000000	 0.000000	 0.000000	 0.000000	 0.000000	 0.089846	-3.783161	 0.005928	-0.012522	 0.398482	 3.599943	 101.796200	-0.213307	-89.955450	-4.490158	 64.091450	-4.517395	-3.660666	 4.252520	 3.749091	-27.313570	 5.793433	-24.087450	 15.208500	 5.323790	 0.000000	 0.000000	 0.000000	 0.000000	 0.000000	 0.000000	 0.000000
 0.000123	 1.271254	 0.063359	 0.465482	-0.011368	 179.991500	-175.664100	 1.750386	-19.238070	 2.516630	-11.709720	 0.000663	-5.263916	 70.208200	 4.643940	 1.292262	 28.425850	-2.713146	 176.602300	 1.123522	 19.315570	-2.073357	-9.980423	 0.085191	 5.054115	 69.195250	-4.676841	-1.288183	 28.361890	 2.710176	 0.230543	 1.989181	-14.776840	 1.963935	 6.307161	-5.049263	-1.645196	-8.029186	 14.284620	-101.478000	 1.740671	 90.353400	 38.797620	 54.561820	-34.532440	 3.285463	 4.358272	-2.139360	-16.762250	-8.047260	-37.324110	-6.580301	 5.266122	 0.000000	 0.000000	 0.000000	 0.000000	 0.000000	 0.000000	 0.000000	 0.089846	-3.783161	 0.005928	-0.009837	 0.320531	 3.515356	 101.796200	-0.213316	-89.955450	-4.038815	 63.704630	-4.968037	-4.008075	 4.254969	 4.677309	-28.859870	 5.783996	-21.918970	 15.208500	 5.323790	 0.000000	 0.000000	 0.000000	 0.000000	 0.000000	 0.000000	 0.000000
 0.000106	 1.271294	 0.063359	 0.472512	-0.012357	 179.991400	-175.483200	 1.715127	-20.979800	 2.511638	-11.687150	-0.000353	-5.209275	 70.102530	 4.617116	 1.292262	 28.425850	-2.713146	 176.464000	 1.072149	 21.058190	-2.060411	-9.919372	 0.087428	 4.990749	 69.075200	-4.650251	-1.288183	 28.361890	 2.710176	 0.302387	 1.794504	-16.262970	 1.879483	 6.947401	-4.950841	-1.523159	-8.873073	 13.903180	-101.478000	 1.740662	 90.353390	 37.881350	 54.514430	-33.550280	 3.683338	 4.362311	-3.300335	-15.898160	-8.488037	-38.383190	-6.580301	 5.266122	 0.000000	 0.000000	 0.000000	 0.000000	 0.000000	 0.000000	 0.000000	 0.089846	-3.783161	 0.005928	-0.007285	 0.244725	 3.410522	 101.796200	-0.213297	-89.955470	-3.453529	 63.078460	-5.529820	-4.666140	 4.639308	 5.794399	-30.375700	 5.485894	-19.471620	 15.208500	 5.323790	 0.000000	 0.000000	 0.000000	 0.000000	 0.000000	 0.000000	 0.000000
